<?xml version="1.0" encoding="UTF-8" standalone="no"?>
<!-- Created with Inkscape (http://www.inkscape.org/) -->

<svg
   xmlns:osb="http://www.openswatchbook.org/uri/2009/osb"
   xmlns:dc="http://purl.org/dc/elements/1.1/"
   xmlns:cc="http://creativecommons.org/ns#"
   xmlns:rdf="http://www.w3.org/1999/02/22-rdf-syntax-ns#"
   xmlns:svg="http://www.w3.org/2000/svg"
   xmlns="http://www.w3.org/2000/svg"
   xmlns:xlink="http://www.w3.org/1999/xlink"
   xmlns:sodipodi="http://sodipodi.sourceforge.net/DTD/sodipodi-0.dtd"
   xmlns:inkscape="http://www.inkscape.org/namespaces/inkscape"
   width="69.758217mm"
   height="16.036909mm"
   viewBox="0 0 69.758216 16.036909"
   version="1.1"
   id="svg2931"
   inkscape:version="0.92.5 (2060ec1f9f, 2020-04-08)"
   sodipodi:docname="logo-NeTH3D-encabezado-chico.svg">
  <defs
     id="defs2925">
    <radialGradient
       inkscape:collect="always"
       xlink:href="#linearGradient1159"
       id="radialGradient1165-0-9-4"
       cx="52.491444"
       cy="98.893227"
       fx="52.491444"
       fy="98.893227"
       r="24.710445"
       gradientTransform="matrix(3.4720469,0,0,0.02522721,-153.52649,103.60562)"
       gradientUnits="userSpaceOnUse" />
    <linearGradient
       id="linearGradient1159"
       osb:paint="gradient">
      <stop
         style="stop-color:#000000;stop-opacity:0.64462811;"
         offset="0"
         id="stop1155" />
      <stop
         style="stop-color:#000000;stop-opacity:0;"
         offset="1"
         id="stop1157" />
    </linearGradient>
  </defs>
  <sodipodi:namedview
     id="base"
     pagecolor="#ffffff"
     bordercolor="#666666"
     borderopacity="1.0"
     inkscape:pageopacity="0.0"
     inkscape:pageshadow="2"
     inkscape:zoom="2.8"
     inkscape:cx="159.9824"
     inkscape:cy="36.915693"
     inkscape:document-units="mm"
     inkscape:current-layer="layer1"
     showgrid="false"
     fit-margin-top="2"
     fit-margin-left="2"
     fit-margin-right="2"
     fit-margin-bottom="2"
     inkscape:window-width="1600"
     inkscape:window-height="836"
     inkscape:window-x="1024"
     inkscape:window-y="27"
     inkscape:window-maximized="1" />
  <metadata
     id="metadata2928">
    <rdf:RDF>
      <cc:Work
         rdf:about="">
        <dc:format>image/svg+xml</dc:format>
        <dc:type
           rdf:resource="http://purl.org/dc/dcmitype/StillImage" />
        <dc:title></dc:title>
      </cc:Work>
    </rdf:RDF>
  </metadata>
  <g
     inkscape:label="Capa 1"
     inkscape:groupmode="layer"
     id="layer1"
     transform="translate(59.069558,-101.52584)">
    <g
       id="g914"
       transform="translate(-0.70364059)">
      <g
         style="fill:#000000"
         id="g3658-9-6-8-0"
         transform="matrix(1.7249258,0,0,1.6842069,-108.88564,-212.02713)" />
    </g>
    <g
       id="g924"
       transform="matrix(0.38322539,0,0,0.38322539,-35.199054,74.66348)"
       style="fill:#ffffff">
      <g
         transform="translate(-55.365535,-21.348454)"
         id="g2744"
         style="fill:#ffffff">
        <path
           d="m 20.19319,104.78882 q -1.4123,-1.89829 -2.79175,-3.76328 -1.34661,-1.89829 -2.79176,-3.8965 -0.0657,-0.16649 -0.36128,-0.29974 -0.26275,-0.13321 -0.45982,-0.13321 h -7.2914 q -0.39413,0 -0.68973,0.29974 -0.29561,0.29975 -0.29561,0.69937 v 24.11166 q 0,0.39964 0.29561,0.69937 0.29561,0.29974 0.68973,0.29974 h 6.40461 q 0.42697,0 0.72257,-0.29974 0.29561,-0.29974 0.29561,-0.69937 v -12.05583 l 9.26205,12.65529 q 0.13137,0.16653 0.39413,0.29974 0.26275,0.0999 0.42697,0.0999 h 7.35709 q 0.42698,0 0.72257,-0.29974 0.29561,-0.29974 0.29561,-0.69937 V 97.6952 q 0,-0.39964 -0.29561,-0.69937 -0.29561,-0.29974 -0.72257,-0.29974 H 24.9556 q -0.42697,0 -0.72257,0.29974 -0.29561,0.29975 -0.29561,0.69937 v 12.25565 q -0.95247,-1.33213 -1.87211,-2.59766 -0.91964,-1.29884 -1.87212,-2.56437 z"
           style="font-style:normal;font-variant:normal;font-weight:500;font-stretch:normal;font-size:10.53513432px;line-height:1.25;font-family:BorisBlackBloxx;-inkscape-font-specification:'BorisBlackBloxx, Medium';font-variant-ligatures:normal;font-variant-caps:normal;font-variant-numeric:normal;font-feature-settings:normal;text-align:start;letter-spacing:0px;word-spacing:0px;writing-mode:lr-tb;text-anchor:start;fill:#ffffff;fill-opacity:1;stroke:none;stroke-width:0.82682431"
           id="path35-5"
           inkscape:connector-curvature="0" />
        <path
           d="m 51.57013,120.34151 -1.21524,-3.13052 q -0.16423,-0.36634 -0.55835,-0.53285 -0.36128,-0.1665 -0.72257,0 -0.13137,0.0666 -0.45982,0.16653 -0.32844,0.0999 -0.91963,0.26642 -1.08386,0.29974 -2.26625,0.29974 -2.39762,0 -3.38295,-0.9991 -0.32844,-0.29974 -0.59119,-0.86589 h 9.36058 q 0.39413,0 0.65688,-0.29974 0.29561,-0.29974 0.29561,-0.69937 v -1.46535 q 0,-4.39604 -2.36478,-7.09362 -2.46331,-2.79748 -6.43745,-2.79748 -3.97414,0 -6.56883,2.76418 -2.59469,2.73088 -2.59469,6.9271 0,4.8623 2.89029,7.59318 2.89028,2.73087 7.71837,2.73087 0.95249,0 1.90496,-0.13321 0.95248,-0.0999 1.83928,-0.29974 0.88679,-0.23314 1.6422,-0.53285 0.78826,-0.29975 1.37946,-0.69938 z m -9.95178,-10.7903 q 0.42697,-0.89919 1.31376,-0.89919 0.65689,0 1.08386,0.66607 0.42698,0.63276 0.55835,1.79838 h -3.41579 q 0.13137,-0.9325 0.45982,-1.56526 z"
           style="font-style:normal;font-variant:normal;font-weight:500;font-stretch:normal;font-size:10.53513432px;line-height:1.25;font-family:BorisBlackBloxx;-inkscape-font-specification:'BorisBlackBloxx, Medium';font-variant-ligatures:normal;font-variant-caps:normal;font-variant-numeric:normal;font-feature-settings:normal;text-align:start;letter-spacing:0px;word-spacing:0px;writing-mode:lr-tb;text-anchor:start;fill:#ffffff;fill-opacity:1;stroke:none;stroke-width:0.82682431"
           id="path37-8"
           inkscape:connector-curvature="0" />
        <path
           d="m 64.52329,122.80596 q 0.42698,0 0.68973,-0.29974 0.29561,-0.29975 0.29561,-0.69937 v -18.54999 h 6.7659 q 0.42696,0 0.72256,-0.29975 0.29562,-0.29974 0.29562,-0.73267 V 97.6952 q 0,-0.39964 -0.29562,-0.69937 -0.2956,-0.29974 -0.72256,-0.29974 H 49.54637 q -0.42697,0 -0.72257,0.29974 -0.26275,0.29975 -0.26275,0.69937 v 4.52926 q 0,0.43295 0.26275,0.73268 0.29561,0.29974 0.72257,0.29974 h 6.79874 v 18.54999 q 0,0.39964 0.29561,0.69937 0.29561,0.29975 0.68973,0.29975 z"
           style="font-style:normal;font-variant:normal;font-weight:500;font-stretch:normal;font-size:10.53513432px;line-height:1.25;font-family:BorisBlackBloxx;-inkscape-font-specification:'BorisBlackBloxx, Medium';font-variant-ligatures:normal;font-variant-caps:normal;font-variant-numeric:normal;font-feature-settings:normal;text-align:start;letter-spacing:0px;word-spacing:0px;writing-mode:lr-tb;text-anchor:start;fill:#ffffff;fill-opacity:1;stroke:none;stroke-width:0.82682431"
           id="path39-5"
           inkscape:connector-curvature="0" />
        <path
           d="m 75.5212,96.6961 q -0.39413,0 -0.68972,0.29975 -0.29561,0.29974 -0.29561,0.69937 v 24.11165 q 0,0.39964 0.29561,0.69937 0.29561,0.29975 0.68972,0.29975 h 7.22572 q 0.42698,0 0.72258,-0.29975 0.29555,-0.29974 0.29555,-0.69937 v -8.892 h 8.37526 v 8.892 q 0,0.39964 0.29554,0.69937 0.29555,0.29975 0.72257,0.29975 h 7.22571 q 0.42698,0 0.72256,-0.29975 0.29555,-0.29974 0.29555,-0.69937 V 97.6952 q 0,-0.39964 -0.29555,-0.69937 -0.29555,-0.29974 -0.72256,-0.29974 h -7.22571 q -0.42699,0 -0.72257,0.29974 -0.29554,0.29975 -0.29554,0.69937 v 8.35915 H 83.76505 V 97.6952 q 0,-0.39964 -0.29555,-0.69937 -0.29555,-0.29974 -0.72258,-0.29974 z"
           style="font-style:normal;font-variant:normal;font-weight:500;font-stretch:normal;font-size:10.53513432px;line-height:1.25;font-family:BorisBlackBloxx;-inkscape-font-specification:'BorisBlackBloxx, Medium';font-variant-ligatures:normal;font-variant-caps:normal;font-variant-numeric:normal;font-feature-settings:normal;text-align:start;letter-spacing:0px;word-spacing:0px;writing-mode:lr-tb;text-anchor:start;fill:#ffffff;fill-opacity:1;stroke:none;stroke-width:0.82682431"
           id="path41-0"
           inkscape:connector-curvature="0" />
        <path
           d="m 112.66637,102.72402 q 0,0.43294 0.29555,0.73267 0.29555,0.26642 0.68973,0.26642 h 8.7037 l -4.007,3.13052 q -0.0985,0.0666 -0.19703,0.33304 -0.0985,0.23313 -0.0985,0.36633 v 3.39695 q 0,0.43294 0.26281,0.73267 0.29555,0.29975 0.72256,0.29975 3.54715,0.0999 4.49964,0.83258 0.85397,0.66607 0.85397,1.46535 0,0.76598 -0.65691,1.16562 -0.62402,0.39964 -1.67505,0.39964 -2.46329,0 -4.33543,-0.93249 -1.051,-0.56616 -1.74073,-0.8992 -0.68974,-0.36633 -1.051,-0.59946 -0.3613,-0.26642 -0.78828,-0.13321 -0.42696,0.13321 -0.62402,0.59946 l -1.93782,4.72908 q -0.0985,0.26643 -0.0658,0.63277 0.0658,0.33303 0.29555,0.53285 0.3613,0.36634 1.31378,0.89919 0.95245,0.53285 2.39761,1.19892 2.92314,1.33214 6.60167,1.33214 5.12368,0 7.8169,-2.09811 2.69324,-2.13142 2.69324,-6.56077 0,-3.03061 -1.67507,-4.9289 -1.64219,-1.8983 -4.86094,-2.59767 l 4.76242,-4.52926 q 0.0658,-0.0666 0.1643,-0.29974 0.13125,-0.26643 0.13125,-0.43295 V 97.6619 q 0,-0.39964 -0.32844,-0.69937 -0.29555,-0.29975 -0.6897,-0.29975 H 113.6187 q -0.39412,0 -0.68973,0.29975 -0.29555,0.29974 -0.29555,0.69937 z"
           style="font-style:normal;font-variant:normal;font-weight:500;font-stretch:normal;font-size:10.53513432px;line-height:1.25;font-family:BorisBlackBloxx;-inkscape-font-specification:'BorisBlackBloxx, Medium';font-variant-ligatures:normal;font-variant-caps:normal;font-variant-numeric:normal;font-feature-settings:normal;text-align:start;letter-spacing:0px;word-spacing:0px;writing-mode:lr-tb;text-anchor:start;fill:#ffffff;fill-opacity:1;stroke:none;stroke-width:0.82682431"
           id="path43-9"
           inkscape:connector-curvature="0" />
        <path
           d="m 135.14819,96.6961 q -0.42695,0 -0.72256,0.29975 -0.29555,0.29974 -0.29555,0.69937 v 24.11165 q 0,0.39964 0.29555,0.69937 0.29555,0.29975 0.72256,0.29975 h 14.45143 q 5.74773,0 9.39343,-3.66338 3.67856,-3.69667 3.67856,-9.39155 0,-5.8281 -3.6457,-9.42486 -3.67856,-3.63007 -9.55767,-3.63007 z m 18.5898,13.08823 q 0,2.53106 -1.21523,3.82989 -1.21524,1.26553 -3.58002,1.26553 h -5.5178 v -10.25744 h 5.78055 q 2.23341,0 3.38295,1.29883 1.14955,1.29883 1.14955,3.86319 z"
           style="font-style:normal;font-variant:normal;font-weight:500;font-stretch:normal;font-size:10.53513432px;line-height:1.25;font-family:BorisBlackBloxx;-inkscape-font-specification:'BorisBlackBloxx, Medium';font-variant-ligatures:normal;font-variant-caps:normal;font-variant-numeric:normal;font-feature-settings:normal;text-align:start;letter-spacing:0px;word-spacing:0px;writing-mode:lr-tb;text-anchor:start;fill:#ffffff;fill-opacity:1;stroke:none;stroke-width:0.82682431"
           id="path45-9"
           inkscape:connector-curvature="0" />
      </g>
      <path
         inkscape:connector-curvature="0"
         id="path348-7-6-1"
         d="m -57.06868,106.26448 171.58974,-0.32812"
         style="fill:#ffffff;stroke:url(#radialGradient1165-0-9-4);stroke-width:0.91864574px;stroke-linecap:butt;stroke-linejoin:miter;stroke-opacity:1" />
    </g>
  </g>
</svg>
